<?xml version="1.0" encoding="UTF-8"?>
<!DOCTYPE svg PUBLIC "-//W3C//DTD SVG 1.1//EN" "http://www.w3.org/Graphics/SVG/1.1/DTD/svg11.dtd">
<!-- Creator: CorelDRAW 2018 (64-Bit) -->
<svg xmlns="http://www.w3.org/2000/svg" xml:space="preserve" width="100mm" height="100mm" version="1.1" style="shape-rendering:geometricPrecision; text-rendering:geometricPrecision; image-rendering:optimizeQuality; fill-rule:evenodd; clip-rule:evenodd"
viewBox="0 0 10000 10000"
 xmlns:xlink="http://www.w3.org/1999/xlink">
 <defs>
  <style type="text/css">
   <![CDATA[
    .str0 {stroke:black;stroke-width:7.62;stroke-miterlimit:22.9256}
    .fil0 {fill:none}
    .fil7 {fill:#1660A5}
    .fil5 {fill:#1C7069}
    .fil1 {fill:#1C7069}
    .fil6 {fill:#29958D}
    .fil8 {fill:#F08519}
    .fil10 {fill:#FEFEFE}
    .fil9 {fill:#FEFEFE;fill-rule:nonzero}
    .fil3 {fill:#1C7069;fill-rule:nonzero}
    .fil2 {fill:#29958D;fill-rule:nonzero}
    .fil4 {fill:#29958D;fill-rule:nonzero}
   ]]>
  </style>
 </defs>
<symbol id="format_x0020_logo_x0020_utk_x0020_jpg" viewBox="-4336.13 -4747.85 18672.26 19495.7">
 <rect class="fil0 str0" x="-4332.32" y="-4744.04" width="18664.64" height="19488.08"/>
</symbol>
 <g id="Layer_x0020_1">
  <metadata id="CorelCorpID_0Corel-Layer"/>
  <g id="_2079861522864">
   <path class="fil1" d="M6802.33 8485.61l-427.98 0 -22.05 95.78c-1.41,6.1 -1.94,11.52 -1.58,16.32 0.91,-0.92 1.97,-1.79 3.18,-2.6 3.86,-2.61 8.2,-3.91 13.02,-3.91 4.63,0 8.34,1.3 11.14,3.91 2.8,2.6 3.81,5.74 3.04,9.41 -0.97,3.83 -3.38,7.04 -7.23,9.64 -3.8,2.57 -7.99,3.87 -12.53,3.91 12.89,10.16 37.46,14.03 74.11,14.88l419.85 0 3.61 -15.68c-0.9,0.18 -1.84,0.29 -2.8,0.34l-18.51 0c-5.01,0 -9.5,-0.77 -13.45,-2.3 -3.95,-1.53 -7.29,-3.59 -9.99,-6.2 -2.69,-2.6 -4.62,-5.62 -5.78,-9.07 -1.16,-3.44 -1.35,-7.16 -0.58,-11.14l13.89 -63.83c0.77,-3.52 -0.19,-6.54 -2.9,-9.07 -2.7,-2.53 -6.26,-3.79 -10.7,-3.79l-8.68 0c-4.43,0 -8.48,1.26 -12.15,3.79 -3.67,2.53 -5.88,5.55 -6.65,9.07l-13.89 64.53c-0.96,3.98 -2.74,7.65 -5.36,11.01 -2.6,3.37 -5.78,6.36 -9.54,8.96 -3.75,2.6 -7.95,4.67 -12.58,6.2 -4.63,1.53 -9.36,2.3 -14.17,2.3l19.95 -93c0.97,-3.52 0.11,-6.54 -2.59,-9.07 -2.7,-2.53 -6.28,-3.79 -10.71,-3.79l-24.88 0 -16.78 77.39c-0.77,3.98 -2.46,7.65 -5.06,11.01 -2.6,3.37 -5.78,6.36 -9.55,8.96 -3.76,2.6 -7.96,4.67 -12.59,6.2 -4.62,1.53 -9.34,2.3 -14.17,2.3l24.6 -115.28 76.08 0c6.74,0 12.53,1.3 17.35,3.91 5.98,-2.61 12.34,-3.91 19.1,-3.91l40.21 0c4.81,0 9.26,0.77 13.31,2.3 4.05,1.53 7.41,3.56 10.11,6.09 2.71,2.52 4.64,5.54 5.79,9.07 1.16,3.52 1.36,7.19 0.58,11.02l-13.88 63.84c-0.78,3.52 0.1,6.58 2.6,9.18 2.51,2.6 5.98,3.9 10.42,3.9l6.04 0 17.06 -74.08c9.34,-35.82 -0.77,-49.88 -75.73,-48.5zm-396.64 45.66c0.77,-3.83 2.45,-7.5 5.06,-11.02 2.6,-3.53 5.83,-6.55 9.7,-9.07 3.85,-2.53 8.09,-4.56 12.72,-6.09 4.63,-1.53 9.45,-2.3 14.46,-2.3l56.13 0c3.27,0 5.83,0.92 7.66,2.76 1.84,1.84 2.56,4.06 2.17,6.66l-52.65 0c-4.43,0.15 -8.43,1.46 -12,3.9 -3.57,2.45 -5.74,5.44 -6.51,8.96l-15.05 70.27c-0.96,3.52 -0.14,6.5 2.46,8.95 2.6,2.45 6.13,3.75 10.56,3.9l52.37 0c-0.39,2.61 -1.93,4.83 -4.63,6.67 -2.7,1.83 -5.69,2.75 -8.98,2.75l-56.11 0c-5.02,0 -9.54,-0.77 -13.61,-2.3 -4.04,-1.53 -7.41,-3.56 -10.12,-6.08 -2.7,-2.53 -4.63,-5.51 -5.79,-8.96 -1.15,-3.45 -1.25,-7.15 -0.28,-11.13l12.44 -57.87zm205.39 -28.48c5.02,0 9.55,0.77 13.6,2.3 4.05,1.53 7.43,3.56 10.13,6.09 2.7,2.52 4.57,5.54 5.64,9.07 1.06,3.52 1.2,7.19 0.43,11.02l-12.44 57.87c-0.77,3.98 -2.46,7.68 -5.06,11.13 -2.61,3.45 -5.84,6.43 -9.69,8.96 -3.86,2.52 -8.15,4.55 -12.88,6.08 -4.72,1.53 -9.5,2.3 -14.31,2.3l-40.21 0c-5.02,0 -9.5,-0.77 -13.46,-2.3 -3.96,-1.53 -7.28,-3.56 -9.98,-6.08 -2.7,-2.53 -4.63,-5.51 -5.79,-8.96 -1.16,-3.45 -1.34,-7.15 -0.57,-11.13l12.43 -57.87c0.78,-3.83 2.51,-7.5 5.21,-11.02 2.7,-3.53 5.93,-6.55 9.7,-9.07 3.76,-2.53 7.95,-4.56 12.57,-6.09 4.64,-1.53 9.46,-2.3 14.47,-2.3l40.21 0zm-4.04 22.28c0.77,-3.52 -0.2,-6.54 -2.9,-9.07 -2.7,-2.53 -6.27,-3.79 -10.7,-3.79l-8.68 0c-4.43,0 -8.54,1.26 -12.29,3.79 -3.77,2.53 -6.03,5.55 -6.8,9.07l-15.05 70.04c-0.77,3.52 0.2,6.58 2.9,9.18 2.7,2.6 6.27,3.9 10.7,3.9l8.68 0c4.43,0 8.48,-1.3 12.14,-3.9 3.67,-2.6 5.99,-5.66 6.95,-9.18l15.05 -70.04z"/>
   <path class="fil2" d="M6274.73 8421.6c1.76,-8.02 -0.44,-14.9 -6.58,-20.65 -6.15,-5.75 -14.28,-8.63 -24.38,-8.63l-19.76 0c-10.1,0 -19.43,2.88 -27.99,8.63 -8.57,5.75 -13.73,12.63 -15.49,20.65l-34.25 159.49c-1.76,8.01 0.44,14.99 6.59,20.92 6.14,5.92 14.27,8.88 24.37,8.88l19.76 0c10.1,0 19.33,-2.96 27.67,-8.88 8.34,-5.93 13.61,-12.91 15.81,-20.92l34.25 -159.49zm9.23 -50.72c11.42,0 21.74,1.75 30.96,5.23 9.22,3.49 16.91,8.1 23.05,13.86 6.15,5.75 10.44,12.63 12.85,20.65 2.42,8.02 2.74,16.39 0.99,25.1l-28.33 131.77c-1.75,9.07 -5.6,17.52 -11.53,25.36 -5.92,7.85 -13.28,14.64 -22.07,20.39 -8.78,5.76 -18.55,10.38 -29.31,13.86 -10.76,3.49 -21.63,5.23 -32.61,5.23l-91.56 0c-11.42,0 -21.63,-1.74 -30.63,-5.23 -9.01,-3.48 -16.58,-8.1 -22.73,-13.86 -6.15,-5.75 -10.54,-12.54 -13.18,-20.39 -2.63,-7.84 -3.07,-16.29 -1.32,-25.36l28.34 -131.77c1.75,-8.71 5.7,-17.08 11.85,-25.1 6.15,-8.02 13.51,-14.9 22.07,-20.65 8.56,-5.76 18.11,-10.37 28.66,-13.86 10.54,-3.48 21.52,-5.23 32.93,-5.23l91.57 0zm-313.56 50.72c2.19,-8.02 0.21,-14.9 -5.94,-20.65 -6.14,-5.75 -14.27,-8.63 -24.37,-8.63l-20.42 0c-10.1,0 -19.22,2.88 -27.34,8.63 -8.12,5.75 -13.28,12.63 -15.48,20.65l-33.6 160.01c-1.75,8.02 0.45,14.9 6.59,20.66 6.15,5.75 14.28,8.62 24.37,8.62l19.11 0c10.1,0 19.43,-2.87 27.99,-8.62 8.57,-5.76 13.73,-12.64 15.49,-20.66l3.29 -15.16 30.31 -144.85zm4.6 -5.23c8.35,-13.59 20.54,-24.66 36.56,-33.2 16.04,-8.54 33.05,-12.99 51.06,-13.33l-56.66 264.06c-1.75,9.06 -5.6,17.52 -11.52,25.36 -5.93,7.84 -13.18,14.73 -21.74,20.66 -8.57,5.92 -18.22,10.54 -28.99,13.85 -10.75,3.31 -21.62,4.97 -32.6,4.97l-175.23 0c1.32,-5.93 5.05,-10.89 11.2,-14.9 6.15,-4.01 12.95,-6.19 20.42,-6.54l111.98 0c10.11,0 19.33,-2.88 27.67,-8.63 8.35,-5.75 13.62,-12.64 15.81,-20.65l3.3 -15.69 -92.89 0c-11.42,0 -21.62,-1.74 -30.63,-5.23 -9,-3.48 -16.69,-8.1 -23.05,-13.86 -6.37,-5.75 -10.87,-12.54 -13.51,-20.39 -2.63,-7.84 -2.86,-16.29 -0.66,-25.36l27.67 -131.77c1.76,-8.71 5.71,-17.08 11.86,-25.1 6.15,-8.02 13.5,-14.9 22.07,-20.65 8.56,-5.76 18.11,-10.37 28.65,-13.86 10.54,-3.48 21.52,-5.23 32.94,-5.23l109.35 0 -1.32 1.05c-0.44,0.35 -0.65,0.7 -0.65,1.04 -6.15,6.28 -10.99,13.07 -14.49,20.4 -3.52,7.32 -5.72,14.98 -6.6,23zm-310.27 5.23c1.76,-8.02 -0.44,-14.9 -6.58,-20.65 -6.15,-5.75 -14.28,-8.63 -24.38,-8.63l-19.76 0c-10.1,0 -19.43,2.88 -28,8.63 -8.56,5.75 -13.72,12.63 -15.47,20.65l-34.26 159.49c-1.76,8.01 0.44,14.99 6.59,20.92 6.15,5.92 14.27,8.88 24.37,8.88l19.76 0c10.1,0 19.33,-2.96 27.67,-8.88 8.34,-5.93 13.61,-12.91 15.81,-20.92l34.25 -159.49zm9.22 -50.72c11.43,0 21.75,1.75 30.97,5.23 9.22,3.49 16.91,8.1 23.05,13.86 6.15,5.75 10.43,12.63 12.85,20.65 2.41,8.02 2.74,16.39 0.99,25.1l-28.33 131.77c-1.76,9.07 -5.6,17.52 -11.53,25.36 -5.92,7.85 -13.28,14.64 -22.07,20.39 -8.78,5.76 -18.55,10.38 -29.31,13.86 -10.76,3.49 -21.63,5.23 -32.61,5.23l-91.56 0c-11.42,0 -21.64,-1.74 -30.64,-5.23 -9,-3.48 -16.57,-8.1 -22.72,-13.86 -6.15,-5.75 -10.54,-12.54 -13.18,-20.39 -2.63,-7.84 -3.07,-16.29 -1.31,-25.36l28.32 -131.77c1.76,-8.71 5.71,-17.08 11.86,-25.1 6.15,-8.02 13.5,-14.9 22.07,-20.65 8.56,-5.76 18.11,-10.37 28.65,-13.86 10.54,-3.48 21.52,-5.23 32.94,-5.23l91.56 0zm-409.73 210.73c-2.2,8.02 -0.34,14.82 5.6,20.4 5.92,5.57 13.94,8.53 24.04,8.88l121.21 0c-1.32,5.93 -5.05,10.98 -11.2,15.16 -6.15,4.19 -12.96,6.28 -20.42,6.28l-129.12 0c-11.42,0 -21.74,-1.74 -30.96,-5.23 -9.22,-3.48 -16.9,-8.1 -23.05,-13.86 -6.15,-5.75 -10.55,-12.54 -13.18,-20.39 -2.64,-7.84 -2.85,-16.29 -0.66,-25.36l52.04 -245.76c1.76,-8.72 5.6,-16.99 11.53,-24.84 5.93,-7.84 13.17,-14.72 21.74,-20.65 8.56,-5.93 18.12,-10.63 28.65,-14.12 10.54,-3.48 21.52,-5.23 32.94,-5.23l-69.16 324.72z"/>
   <path class="fil3" d="M5092.28 8581.61c-1.76,8.02 0.22,14.9 5.93,20.66 5.71,5.75 13.61,8.62 23.71,8.62l34.26 0c-1.32,5.93 -5.05,10.98 -11.2,15.16 -6.15,4.19 -12.96,6.28 -20.42,6.28l-42.16 0c-11.42,0 -21.63,-1.74 -30.64,-5.23 -8.99,-3.48 -16.57,-8.1 -22.72,-13.86 -6.15,-5.75 -10.54,-12.54 -13.18,-20.39 -2.63,-7.84 -2.85,-16.29 -0.66,-25.36l28.33 -132.81c1.76,-8.72 5.6,-17 11.53,-24.84 5.93,-7.84 13.17,-14.73 21.74,-20.65 8.56,-5.94 18.11,-10.64 28.65,-14.12 10.55,-3.49 21.3,-5.23 32.29,-5.23l-45.46 211.77zm59.95 -277.66c-2.2,9.06 -6.15,17.52 -11.86,25.36 -5.71,7.85 -12.85,14.64 -21.41,20.39 -8.56,5.76 -18.11,10.38 -28.65,13.86 -10.55,3.49 -21.31,5.23 -32.29,5.23l9.89 -46.54c1.75,-8.71 5.6,-17 11.52,-24.84 5.93,-7.84 13.18,-14.73 21.75,-20.65 8.56,-5.93 18,-10.63 28.32,-14.12 10.32,-3.49 21.19,-5.23 32.61,-5.23l-9.88 46.54zm-235.18 117.65c2.2,-8.02 0.22,-14.9 -5.93,-20.65 -6.14,-5.75 -14.27,-8.63 -24.37,-8.63l-20.42 0c-10.1,0 -19.22,2.88 -27.34,8.63 -8.12,5.75 -13.29,12.63 -15.48,20.65l-33.6 160.01c-1.75,8.02 0.45,14.9 6.59,20.66 6.15,5.75 14.28,8.62 24.38,8.62l19.1 0c10.1,0 19.43,-2.87 28,-8.62 8.56,-5.76 13.72,-12.64 15.48,-20.66l3.29 -15.16 30.3 -144.85zm4.61 -5.23c8.35,-13.59 20.53,-24.66 36.56,-33.2 16.03,-8.54 33.05,-12.99 51.06,-13.33l-56.66 264.06c-1.75,9.06 -5.6,17.52 -11.52,25.36 -5.93,7.84 -13.18,14.73 -21.74,20.66 -8.57,5.92 -18.23,10.54 -28.99,13.85 -10.76,3.31 -21.63,4.97 -32.61,4.97l-175.22 0c1.31,-5.93 5.05,-10.89 11.2,-14.9 6.15,-4.01 12.95,-6.19 20.42,-6.54l111.99 0c10.09,0 19.32,-2.88 27.66,-8.63 8.35,-5.75 13.62,-12.64 15.81,-20.65l3.29 -15.69 -92.87 0c-11.43,0 -21.64,-1.74 -30.64,-5.23 -9,-3.48 -16.69,-8.1 -23.06,-13.86 -6.36,-5.75 -10.86,-12.54 -13.5,-20.39 -2.63,-7.84 -2.86,-16.29 -0.66,-25.36l27.67 -131.77c1.75,-8.71 5.71,-17.08 11.85,-25.1 6.15,-8.02 13.51,-14.9 22.07,-20.65 8.57,-5.76 18.12,-10.37 28.66,-13.86 10.54,-3.48 21.52,-5.23 32.94,-5.23l109.35 0 -1.32 1.05c-0.44,0.35 -0.66,0.7 -0.66,1.04 -6.15,6.28 -10.98,13.07 -14.49,20.4 -3.51,7.32 -5.71,14.98 -6.59,23zm-328.05 -24.05l-56.66 0c-10.1,0 -19.32,2.96 -27.67,8.89 -8.34,5.93 -13.61,12.9 -15.8,20.92l-33.6 159.48c-2.2,8.02 -0.22,14.9 5.93,20.66 6.15,5.75 14.27,8.62 24.37,8.62l19.76 0c10.11,0 19.43,-2.87 28,-8.62 8.56,-5.76 13.72,-12.64 15.48,-20.66l40.19 -189.29zm103.42 218.57c-0.88,5.93 -4.39,10.98 -10.54,15.16 -6.15,4.19 -12.96,6.28 -20.42,6.28l-46.11 0c-8.35,0 -16.36,-1.39 -24.05,-4.18 -7.69,-2.79 -12.85,-7.67 -15.48,-14.64 -2.63,4.87 -7.57,9.24 -14.82,13.07 -7.25,3.84 -16.58,5.75 -28,5.75l-87.61 0c-11.42,0 -21.74,-1.74 -30.97,-5.23 -9.22,-3.48 -16.9,-8.1 -23.05,-13.86 -6.15,-5.75 -10.54,-12.54 -13.18,-20.39 -2.63,-7.84 -2.85,-16.29 -0.65,-25.36l28.32 -131.77c1.76,-8.71 5.6,-17.08 11.53,-25.1 5.93,-8.02 13.28,-14.9 22.07,-20.65 8.78,-5.76 18.45,-10.37 28.98,-13.86 10.54,-3.48 21.52,-5.23 32.94,-5.23l173.25 0 -45.45 210.21c-1.76,8.01 0.33,14.99 6.26,20.92 5.93,5.92 14.16,8.88 24.7,8.88l32.28 0zm-460.47 -192.95c10.11,0 19.44,-2.87 28,-8.63 8.56,-5.75 13.73,-12.63 15.48,-20.65l17.13 -79.48c1.76,-8.02 -0.44,-14.99 -6.59,-20.92 -6.15,-5.92 -14.27,-8.89 -24.37,-8.89l-71.81 0 -29.64 138.57 71.8 0zm-40.84 192.95c10.1,0 19.44,-2.96 28,-8.88 8.56,-5.93 13.72,-12.91 15.48,-20.92l23.71 -112.43c2.2,-8.01 0.22,-14.9 -5.92,-20.65 -6.15,-5.75 -14.28,-8.63 -24.38,-8.63l-72.46 0 -36.89 171.51 72.46 0zm-77.73 -352.95l197.62 0c9.23,0 17.57,1.39 25.03,4.18 7.47,2.79 13.62,6.53 18.45,11.24 4.83,4.71 8.34,10.28 10.54,16.74 2.2,6.45 2.42,13.33 0.66,20.65l-14.49 67.98c-2.2,10.1 -7.58,19.34 -16.14,27.71 -8.57,8.37 -18.78,14.81 -30.63,19.35 11.85,4.88 20.86,12.19 27.01,21.96 6.15,9.76 7.9,20.74 5.27,32.94l-19.77 89.94c-1.75,8.36 -5.38,16.29 -10.87,23.79 -5.49,7.5 -12.4,14.03 -20.75,19.61 -8.34,5.58 -17.56,10.02 -27.67,13.33 -10.1,3.32 -20.42,4.97 -30.96,4.97l-193.01 0 79.71 -374.39z"/>
   <g>
    <path class="fil4" d="M4149.34 8766.87l17.83 0c2.3,0 3.9,0.25 4.81,0.76 0.79,0.45 1.43,1.14 1.9,2.07 0.47,0.92 0.7,1.96 0.7,3.11 0,1.16 -0.23,2.2 -0.7,3.12 -0.47,0.93 -1.11,1.62 -1.9,2.07 -0.91,0.51 -2.51,0.76 -4.81,0.76l-17.83 0 0 19.1c0,1.63 -0.04,2.82 -0.14,3.55 -0.11,0.74 -0.34,1.51 -0.69,2.31 -0.47,0.96 -1.18,1.72 -2.14,2.3 -0.95,0.58 -2.03,0.86 -3.2,0.86 -1.18,0 -2.24,-0.28 -3.19,-0.86 -0.96,-0.58 -1.68,-1.34 -2.15,-2.3 -0.35,-0.8 -0.58,-1.57 -0.68,-2.31 -0.1,-0.73 -0.16,-1.92 -0.16,-3.55l0 -51.53c0,-0.9 0.03,-1.62 0.07,-2.16 0.05,-0.54 0.19,-1.23 0.46,-2.05 0.26,-0.81 0.66,-1.5 1.19,-2.08 0.53,-0.57 1.18,-1.01 1.93,-1.29 0.75,-0.29 1.37,-0.47 1.87,-0.51 0.5,-0.05 1.16,-0.07 1.98,-0.07l26.96 0c2.29,0 3.9,0.26 4.81,0.77 0.79,0.45 1.43,1.13 1.9,2.06 0.47,0.93 0.7,1.97 0.7,3.12 0,1.15 -0.23,2.19 -0.7,3.12 -0.47,0.93 -1.11,1.62 -1.9,2.06 -0.91,0.51 -2.52,0.77 -4.81,0.77l-22.11 0 0 16.8zm84.04 -5.52c1.18,-1.54 2.75,-2.83 4.72,-3.87 1.97,-1.04 4.04,-1.56 6.22,-1.56 3.15,0 5.8,0.77 7.94,2.31 1.94,1.41 2.92,3.15 2.92,5.23 0,1.79 -0.58,3.31 -1.73,4.56 -1.05,1.15 -2.33,1.72 -3.84,1.72 -1.05,0 -2.36,-0.43 -3.92,-1.29 -1.53,-0.87 -2.99,-1.3 -4.37,-1.3 -2.09,0 -3.88,0.79 -5.38,2.37 -1.5,1.58 -2.25,3.87 -2.25,6.85l0 21.97c0,2.62 -0.25,4.48 -0.75,5.57 -0.92,1.98 -2.58,2.97 -4.99,2.97 -2.41,0 -4.07,-0.99 -4.99,-2.97 -0.5,-1.09 -0.75,-2.95 -0.75,-5.57l0 -33.73c0,-1.63 0.06,-2.8 0.17,-3.5 0.1,-0.71 0.32,-1.41 0.67,-2.11 0.41,-0.87 1.08,-1.57 1.97,-2.1 0.9,-0.53 1.89,-0.78 2.97,-0.78 1.5,0 2.73,0.48 3.67,1.44 0.91,0.89 1.48,2.16 1.72,3.79zm90.34 15.5c-0.09,-2.18 -0.43,-3.99 -1.01,-5.43 -0.65,-1.56 -1.64,-2.81 -2.96,-3.74 -1.32,-0.93 -2.91,-1.39 -4.77,-1.39 -1.85,0 -3.44,0.46 -4.76,1.39 -1.33,0.93 -2.3,2.18 -2.91,3.74 -0.65,1.54 -0.99,3.35 -1.02,5.43l17.43 0zm4.68 8.54l-22.11 0c0,3.32 0.88,6.01 2.65,8.06 1.76,2.05 4.26,3.07 7.5,3.07 3.09,0 5.74,-0.9 7.94,-2.69 1.62,-1.25 3.05,-1.87 4.28,-1.87 1.15,0 2.21,0.51 3.18,1.55 0.97,1.04 1.46,2.27 1.46,3.68 0,2.11 -1.51,4.25 -4.51,6.43 -3.14,2.3 -7.32,3.45 -12.53,3.45 -2.29,0 -4.42,-0.23 -6.4,-0.7 -1.97,-0.46 -3.89,-1.29 -5.77,-2.49 -1.89,-1.2 -3.48,-2.74 -4.77,-4.63 -1.29,-1.88 -2.34,-4.35 -3.13,-7.37 -0.8,-3.02 -1.19,-6.48 -1.19,-10.38 0,-8.03 1.82,-14.3 5.45,-18.81 3.64,-4.51 8.47,-6.77 14.53,-6.77 6.03,0 10.83,2.08 14.37,6.26 3.55,4.17 5.42,9.53 5.62,16.06 0.06,2.52 -0.45,4.38 -1.54,5.56 -0.44,0.48 -0.97,0.85 -1.61,1.11 -0.63,0.25 -1.17,0.4 -1.61,0.43 -0.45,0.03 -1.05,0.05 -1.81,0.05zm80.23 -8.54c-0.08,-2.18 -0.42,-3.99 -1.01,-5.43 -0.65,-1.56 -1.63,-2.81 -2.96,-3.74 -1.32,-0.93 -2.91,-1.39 -4.76,-1.39 -1.85,0 -3.44,0.46 -4.77,1.39 -1.32,0.93 -2.29,2.18 -2.91,3.74 -0.65,1.54 -0.98,3.35 -1.01,5.43l17.42 0zm4.68 8.54l-22.1 0c0,3.32 0.88,6.01 2.64,8.06 1.77,2.05 4.27,3.07 7.5,3.07 3.09,0 5.74,-0.9 7.95,-2.69 1.61,-1.25 3.04,-1.87 4.28,-1.87 1.14,0 2.2,0.51 3.17,1.55 0.97,1.04 1.46,2.27 1.46,3.68 0,2.11 -1.5,4.25 -4.5,6.43 -3.15,2.3 -7.33,3.45 -12.53,3.45 -2.3,0 -4.43,-0.23 -6.4,-0.7 -1.97,-0.46 -3.9,-1.29 -5.78,-2.49 -1.88,-1.2 -3.47,-2.74 -4.77,-4.63 -1.29,-1.88 -2.33,-4.35 -3.13,-7.37 -0.79,-3.02 -1.19,-6.48 -1.19,-10.38 0,-8.03 1.82,-14.3 5.46,-18.81 3.63,-4.51 8.47,-6.77 14.53,-6.77 6.03,0 10.82,2.08 14.37,6.26 3.54,4.17 5.41,9.53 5.62,16.06 0.06,2.52 -0.46,4.38 -1.55,5.56 -0.44,0.48 -0.97,0.85 -1.6,1.11 -0.63,0.25 -1.18,0.4 -1.62,0.43 -0.44,0.03 -1.04,0.05 -1.81,0.05zm144.04 21.11c-0.82,0 -1.48,-0.03 -1.98,-0.08 -0.5,-0.05 -1.12,-0.21 -1.87,-0.5 -0.75,-0.28 -1.4,-0.72 -1.93,-1.29 -0.53,-0.58 -0.92,-1.28 -1.19,-2.1 -0.26,-0.81 -0.41,-1.48 -0.45,-2.03 -0.05,-0.54 -0.08,-1.26 -0.08,-2.16l0 -52.01c0,-0.9 0.03,-1.62 0.08,-2.16 0.04,-0.54 0.19,-1.23 0.45,-2.05 0.27,-0.81 0.66,-1.5 1.19,-2.08 0.53,-0.57 1.18,-1.01 1.93,-1.29 0.75,-0.29 1.37,-0.47 1.87,-0.51 0.5,-0.05 1.16,-0.07 1.98,-0.07l15.27 0c4.29,0 7.94,0.79 10.94,2.37 3,1.58 5.68,4.13 8.03,7.61 1.83,2.66 2.96,5.66 3.4,9.04 0.44,3.37 0.66,8.43 0.66,15.14 0,6.72 -0.22,11.76 -0.66,15.14 -0.44,3.37 -1.57,6.39 -3.4,9.05 -2.35,3.48 -5.03,6.01 -8.03,7.6 -3,1.58 -6.65,2.38 -10.94,2.38l-15.27 0zm4.86 -56.43l0 44.53 9.35 0c4.06,0 7.12,-1.41 9.18,-4.22 1.09,-1.48 1.79,-3.43 2.1,-5.84 0.31,-2.42 0.46,-6.48 0.46,-12.21 0,-5.72 -0.15,-9.8 -0.46,-12.21 -0.31,-2.42 -1.01,-4.35 -2.1,-5.83 -2.06,-2.81 -5.12,-4.22 -9.18,-4.22l-9.35 0zm91.93 23.96c-0.36,1.94 -0.53,4.43 -0.53,7.47 0,3.04 0.17,5.52 0.53,7.45 0.35,1.94 1.07,3.49 2.16,4.64 1.32,1.44 3.1,2.16 5.34,2.16 2.23,0 4.01,-0.72 5.34,-2.16 1.09,-1.15 1.81,-2.7 2.16,-4.64 0.35,-1.93 0.53,-4.41 0.53,-7.45 0,-3.04 -0.18,-5.53 -0.53,-7.47 -0.35,-1.93 -1.07,-3.47 -2.16,-4.62 -1.33,-1.44 -3.11,-2.16 -5.34,-2.16 -2.24,0 -4.02,0.72 -5.34,2.16 -1.09,1.15 -1.81,2.69 -2.16,4.62zm25.88 -4.09c0.75,2.94 1.12,6.79 1.12,11.56 0,4.77 -0.37,8.62 -1.12,11.56 -0.75,2.95 -2.13,5.57 -4.13,7.87 -3.59,4.1 -8.34,6.14 -14.25,6.14 -5.91,0 -10.66,-2.04 -14.25,-6.14 -2,-2.3 -3.37,-4.92 -4.12,-7.87 -0.75,-2.94 -1.14,-6.79 -1.14,-11.56 0,-4.77 0.39,-8.62 1.14,-11.56 0.75,-2.95 2.12,-5.57 4.12,-7.87 3.59,-4.1 8.34,-6.15 14.25,-6.15 5.91,0 10.66,2.05 14.25,6.15 2,2.3 3.38,4.92 4.13,7.87zm74.83 4.89l-7.37 25.19c-0.74,2.66 -1.59,4.42 -2.56,5.28 -1.2,1.06 -2.59,1.58 -4.15,1.58 -1.56,0 -2.94,-0.52 -4.14,-1.58 -1.01,-0.9 -1.86,-2.66 -2.56,-5.28l-9.36 -34.4c-0.64,-2.31 -0.84,-4.05 -0.57,-5.23 0.26,-1.22 0.91,-2.24 1.93,-3.06 1.01,-0.81 2.13,-1.21 3.36,-1.21 1.47,0 2.69,0.53 3.67,1.58 0.44,0.51 0.79,1.07 1.05,1.68 0.27,0.61 0.58,1.62 0.93,3.02l6.49 24.91 7.15 -24.81c0.73,-2.5 1.54,-4.16 2.42,-4.99 0.94,-0.93 2.18,-1.39 3.71,-1.39 1.53,0 2.76,0.46 3.71,1.39 0.88,0.83 1.69,2.49 2.42,4.99l7.15 24.81 6.49 -24.91c0.35,-1.4 0.66,-2.41 0.92,-3.02 0.27,-0.61 0.62,-1.17 1.06,-1.68 0.97,-1.05 2.19,-1.58 3.66,-1.58 1.24,0 2.37,0.4 3.39,1.21 1.01,0.82 1.64,1.84 1.91,3.06 0.26,1.18 0.07,2.92 -0.58,5.23l-9.35 34.4c-0.71,2.62 -1.56,4.38 -2.56,5.28 -1.2,1.06 -2.59,1.58 -4.15,1.58 -1.56,0 -2.94,-0.52 -4.14,-1.58 -0.97,-0.86 -1.83,-2.62 -2.56,-5.28l-7.37 -25.19zm87.21 -13.63c1.41,-1.69 3.15,-3 5.19,-3.92 2.04,-0.91 4.15,-1.36 6.32,-1.36 4.53,0 8.15,1.48 10.86,4.42 1.73,1.89 2.95,3.98 3.65,6.29 0.69,2.3 1.03,4.94 1.03,7.91l0 23.8c0,2.62 -0.25,4.48 -0.75,5.57 -0.92,1.98 -2.58,2.97 -4.99,2.97 -2.41,0 -4.07,-0.99 -4.99,-2.97 -0.5,-1.09 -0.75,-2.95 -0.75,-5.57l0 -22.07c0,-3.1 -0.73,-5.39 -2.22,-6.85 -1.48,-1.45 -3.28,-2.17 -5.37,-2.17 -2.08,0 -3.88,0.72 -5.39,2.17 -1.52,1.46 -2.28,3.75 -2.28,6.85l0 22.07c0,2.62 -0.25,4.48 -0.75,5.57 -0.92,1.98 -2.58,2.97 -4.99,2.97 -2.41,0 -4.07,-0.99 -4.99,-2.97 -0.5,-1.09 -0.75,-2.95 -0.75,-5.57l0 -33.73c0,-1.63 0.06,-2.8 0.17,-3.5 0.1,-0.71 0.32,-1.41 0.67,-2.11 0.41,-0.87 1.08,-1.57 1.97,-2.1 0.9,-0.53 1.89,-0.78 2.97,-0.78 1.5,0 2.73,0.48 3.67,1.44 0.79,0.8 1.37,2.01 1.72,3.64zm87.3 -14.87l0 45.2c0,2.78 1.23,4.25 3.7,4.41 1.53,0.1 2.68,0.35 3.44,0.77 1.53,0.83 2.3,2.32 2.3,4.46 0,2.11 -0.77,3.6 -2.3,4.47 -1.03,0.57 -2.6,0.86 -4.72,0.86l-0.62 0c-2.29,0 -4.3,-0.4 -6.05,-1.2 -1.75,-0.8 -3.15,-1.89 -4.18,-3.25 -1.03,-1.36 -1.8,-2.86 -2.3,-4.52 -0.5,-1.67 -0.75,-3.44 -0.75,-5.33l0 -45.87c0,-2.63 0.25,-4.48 0.75,-5.57 0.92,-1.98 2.58,-2.97 4.99,-2.97 2.41,0 4.07,0.99 4.99,2.97 0.5,1.09 0.75,2.94 0.75,5.57zm62.98 27.7c-0.35,1.94 -0.53,4.43 -0.53,7.47 0,3.04 0.18,5.52 0.53,7.45 0.35,1.94 1.07,3.49 2.16,4.64 1.33,1.44 3.11,2.16 5.34,2.16 2.24,0 4.02,-0.72 5.34,-2.16 1.09,-1.15 1.81,-2.7 2.16,-4.64 0.36,-1.93 0.53,-4.41 0.53,-7.45 0,-3.04 -0.17,-5.53 -0.53,-7.47 -0.35,-1.93 -1.07,-3.47 -2.16,-4.62 -1.32,-1.44 -3.1,-2.16 -5.34,-2.16 -2.23,0 -4.01,0.72 -5.34,2.16 -1.09,1.15 -1.81,2.69 -2.16,4.62zm25.89 -4.09c0.75,2.94 1.11,6.79 1.11,11.56 0,4.77 -0.36,8.62 -1.11,11.56 -0.75,2.95 -2.14,5.57 -4.14,7.87 -3.58,4.1 -8.33,6.14 -14.25,6.14 -5.91,0 -10.66,-2.04 -14.25,-6.14 -2,-2.3 -3.37,-4.92 -4.12,-7.87 -0.75,-2.94 -1.13,-6.79 -1.13,-11.56 0,-4.77 0.38,-8.62 1.13,-11.56 0.75,-2.95 2.12,-5.57 4.12,-7.87 3.59,-4.1 8.34,-6.15 14.25,-6.15 5.92,0 10.67,2.05 14.25,6.15 2,2.3 3.39,4.92 4.14,7.87zm63.88 -3.46c-2.44,0 -4.9,0.8 -7.37,2.4 -1.35,0.86 -2.62,1.3 -3.79,1.3 -1.36,0 -2.44,-0.56 -3.27,-1.68 -0.85,-1.12 -1.28,-2.37 -1.28,-3.75 0,-2.33 1.43,-4.31 4.28,-5.95 3.35,-1.92 7.22,-2.88 11.61,-2.88 6.41,0 11.25,1.48 14.5,4.43 3.25,2.96 4.87,7.38 4.87,13.23l0 24.81c0,1.63 -0.05,2.8 -0.15,3.5 -0.1,0.71 -0.34,1.41 -0.69,2.11 -0.41,0.87 -1.06,1.55 -1.96,2.08 -0.89,0.53 -1.89,0.8 -2.98,0.8 -1.5,0 -2.72,-0.48 -3.67,-1.44 -0.76,-0.76 -1.32,-1.87 -1.67,-3.31 -1.71,1.83 -3.39,3.11 -5.05,3.84 -1.66,0.74 -3.78,1.1 -6.34,1.1 -5.12,0 -9.03,-1.5 -11.73,-4.51 -2.53,-2.75 -3.8,-6.49 -3.8,-11.22 0,-4.23 1.36,-7.7 4.06,-10.42 2.71,-2.71 6.65,-4.07 11.83,-4.07l10.67 0 0 -2.5c0,-2.72 -0.66,-4.72 -1.98,-5.98 -1.32,-1.27 -3.35,-1.89 -6.09,-1.89zm8.07 21.59l0 -2.68 -8.73 0c-4.53,0 -6.8,1.92 -6.8,5.75 0,1.8 0.59,3.19 1.75,4.18 1.17,0.99 2.9,1.49 5.23,1.49 1.55,0 2.85,-0.16 3.88,-0.48 1.03,-0.32 2,-0.96 2.91,-1.92 0.68,-0.67 1.15,-1.49 1.4,-2.43 0.25,-0.95 0.36,-2.24 0.36,-3.91zm97.19 -41.74l0 52.06c0,1.63 -0.05,2.8 -0.15,3.5 -0.1,0.71 -0.34,1.41 -0.69,2.11 -0.41,0.87 -1.06,1.55 -1.96,2.08 -0.9,0.53 -1.9,0.8 -2.98,0.8 -1.5,0 -2.72,-0.48 -3.67,-1.44 -0.76,-0.76 -1.32,-1.95 -1.67,-3.55 -1.53,1.86 -3.19,3.19 -4.99,3.98 -1.79,0.8 -3.94,1.2 -6.44,1.2 -4.77,0 -8.49,-1.5 -11.16,-4.51 -1.06,-1.18 -1.93,-2.54 -2.61,-4.07 -0.67,-1.54 -1.16,-3.3 -1.45,-5.27 -0.3,-1.96 -0.49,-3.79 -0.58,-5.48 -0.09,-1.7 -0.13,-3.79 -0.13,-6.29 0,-2.46 0.04,-4.54 0.13,-6.22 0.09,-1.68 0.28,-3.5 0.58,-5.47 0.29,-1.97 0.78,-3.71 1.45,-5.25 0.68,-1.53 1.55,-2.89 2.61,-4.07 2.67,-3.01 6.38,-4.52 11.11,-4.52 4.77,0 8.48,1.67 11.12,4.99l0 -14.58c0,-2.63 0.25,-4.48 0.75,-5.57 0.92,-1.98 2.58,-2.97 4.99,-2.97 2.41,0 4.07,0.99 4.99,2.97 0.5,1.09 0.75,2.94 0.75,5.57zm-27.01 35.12c0,1.79 0.05,3.33 0.14,4.61 0.08,1.28 0.29,2.56 0.61,3.85 0.33,1.3 0.77,2.35 1.31,3.15 0.55,0.8 1.28,1.44 2.22,1.94 0.94,0.5 2.08,0.75 3.4,0.75 1.35,0 2.51,-0.25 3.49,-0.75 0.97,-0.5 1.73,-1.14 2.29,-1.94 0.56,-0.8 1,-1.85 1.32,-3.15 0.33,-1.29 0.53,-2.57 0.62,-3.85 0.09,-1.28 0.13,-2.82 0.13,-4.61 0,-2.27 -0.08,-4.16 -0.26,-5.66 -0.18,-1.5 -0.51,-2.96 -1.03,-4.37 -0.51,-1.4 -1.31,-2.46 -2.38,-3.15 -1.08,-0.69 -2.44,-1.02 -4.09,-1.02 -1.65,0 -3,0.33 -4.08,1.02 -1.07,0.69 -1.86,1.75 -2.38,3.15 -0.51,1.41 -0.87,2.87 -1.04,4.37 -0.18,1.5 -0.27,3.39 -0.27,5.66zm170.65 18.86l-16.02 -52.11c-0.73,-2.4 -1.01,-4.22 -0.84,-5.47 0.21,-1.57 0.93,-2.78 2.15,-3.65 1.22,-0.86 2.46,-1.29 3.72,-1.29 1.47,0 2.68,0.51 3.62,1.53 0.53,0.58 0.94,1.19 1.24,1.83 0.29,0.64 0.66,1.66 1.1,3.07l11.69 39.01 11.7 -39.01c0.44,-1.41 0.8,-2.43 1.1,-3.07 0.29,-0.64 0.7,-1.25 1.23,-1.83 0.94,-1.02 2.15,-1.53 3.62,-1.53 1.27,0 2.52,0.43 3.74,1.29 1.22,0.87 1.93,2.08 2.13,3.65 0.18,1.25 -0.1,3.07 -0.84,5.47l-16.06 52.11c-0.73,2.33 -1.56,3.98 -2.47,4.94 -1.12,1.09 -2.5,1.63 -4.15,1.63 -1.67,0 -3.07,-0.54 -4.19,-1.63 -0.91,-0.96 -1.73,-2.61 -2.47,-4.94zm98.02 -23.46c-0.09,-2.18 -0.43,-3.99 -1.02,-5.43 -0.64,-1.56 -1.63,-2.81 -2.95,-3.74 -1.32,-0.93 -2.91,-1.39 -4.77,-1.39 -1.85,0 -3.44,0.46 -4.76,1.39 -1.33,0.93 -2.3,2.18 -2.91,3.74 -0.65,1.54 -0.99,3.35 -1.02,5.43l17.43 0zm4.68 8.54l-22.11 0c0,3.32 0.88,6.01 2.65,8.06 1.76,2.05 4.26,3.07 7.5,3.07 3.09,0 5.74,-0.9 7.94,-2.69 1.62,-1.25 3.05,-1.87 4.28,-1.87 1.15,0 2.21,0.51 3.18,1.55 0.97,1.04 1.46,2.27 1.46,3.68 0,2.11 -1.51,4.25 -4.51,6.43 -3.14,2.3 -7.32,3.45 -12.53,3.45 -2.29,0 -4.42,-0.23 -6.4,-0.7 -1.97,-0.46 -3.89,-1.29 -5.78,-2.49 -1.88,-1.2 -3.47,-2.74 -4.76,-4.63 -1.29,-1.88 -2.34,-4.35 -3.13,-7.37 -0.8,-3.02 -1.19,-6.48 -1.19,-10.38 0,-8.03 1.82,-14.3 5.45,-18.81 3.63,-4.51 8.47,-6.77 14.53,-6.77 6.03,0 10.83,2.08 14.37,6.26 3.55,4.17 5.42,9.53 5.62,16.06 0.06,2.52 -0.45,4.38 -1.54,5.56 -0.44,0.48 -0.97,0.85 -1.61,1.11 -0.63,0.25 -1.17,0.4 -1.61,0.43 -0.45,0.03 -1.05,0.05 -1.81,0.05zm72.12 -29.47c3.44,0 6.44,0.82 9,2.45 3.7,2.05 5.56,4.4 5.56,7.06 0,1.47 -0.55,2.83 -1.64,4.07 -0.94,1.09 -2.11,1.64 -3.53,1.64 -1.2,0 -2.53,-0.58 -3.97,-1.73 -1.85,-1.44 -3.69,-2.16 -5.51,-2.16 -2.71,0.06 -4.87,1.15 -6.49,3.26 -1.71,2.3 -2.56,5.95 -2.56,10.94 0,5.06 0.85,8.73 2.56,11.04 1.65,2.17 3.81,3.26 6.49,3.26 1.91,0 3.75,-0.7 5.51,-2.11 1.5,-1.22 2.83,-1.82 3.97,-1.82 1.39,0 2.56,0.56 3.53,1.68 1.09,1.18 1.64,2.54 1.64,4.07 0,2.53 -1.86,4.9 -5.56,7.11 -2.71,1.6 -5.74,2.39 -9.09,2.39 -1.97,0 -3.86,-0.23 -5.67,-0.7 -1.8,-0.46 -3.64,-1.29 -5.5,-2.51 -1.85,-1.22 -3.44,-2.77 -4.78,-4.64 -1.33,-1.87 -2.44,-4.32 -3.29,-7.36 -0.85,-3.03 -1.28,-6.51 -1.28,-10.41 0,-3.9 0.43,-7.37 1.28,-10.41 0.85,-3.04 1.96,-5.49 3.31,-7.34 1.35,-1.86 2.96,-3.39 4.81,-4.59 1.85,-1.2 3.69,-2.03 5.51,-2.5 1.83,-0.46 3.73,-0.69 5.7,-0.69zm63.16 36.28l0 -24.66 -1.15 0c-1.79,0 -3.09,-0.23 -3.88,-0.67 -1.41,-0.8 -2.12,-2.18 -2.12,-4.13 0,-1.95 0.71,-3.33 2.12,-4.13 0.79,-0.45 2.09,-0.67 3.88,-0.67l1.15 0 0 -6.67c0,-2.62 0.25,-4.48 0.75,-5.57 0.91,-1.98 2.57,-2.97 4.98,-2.97 2.42,0 4.08,0.99 4.99,2.97 0.5,1.09 0.75,2.95 0.75,5.57l0 6.67 3.44 0c1.8,0 3.09,0.22 3.88,0.67 1.42,0.8 2.12,2.18 2.12,4.13 0,1.95 -0.7,3.33 -2.12,4.13 -0.79,0.44 -2.08,0.67 -3.88,0.67l-3.44 0 0 23.99c0,2.78 1.24,4.25 3.71,4.41 1.53,0.1 2.67,0.35 3.44,0.77 1.53,0.83 2.29,2.32 2.29,4.46 0,2.11 -0.76,3.6 -2.29,4.47 -1.03,0.57 -2.6,0.86 -4.72,0.86l-0.62 0c-2.29,0 -4.31,-0.4 -6.06,-1.2 -1.75,-0.8 -3.15,-1.89 -4.18,-3.25 -1.03,-1.36 -1.79,-2.86 -2.29,-4.52 -0.5,-1.67 -0.75,-3.44 -0.75,-5.33zm76.44 -18.17c-0.35,1.94 -0.53,4.43 -0.53,7.47 0,3.04 0.18,5.52 0.53,7.45 0.35,1.94 1.08,3.49 2.16,4.64 1.33,1.44 3.11,2.16 5.34,2.16 2.24,0 4.02,-0.72 5.34,-2.16 1.09,-1.15 1.81,-2.7 2.16,-4.64 0.36,-1.93 0.53,-4.41 0.53,-7.45 0,-3.04 -0.17,-5.53 -0.53,-7.47 -0.35,-1.93 -1.07,-3.47 -2.16,-4.62 -1.32,-1.44 -3.1,-2.16 -5.34,-2.16 -2.23,0 -4.01,0.72 -5.34,2.16 -1.08,1.15 -1.81,2.69 -2.16,4.62zm25.89 -4.09c0.75,2.94 1.11,6.79 1.11,11.56 0,4.77 -0.36,8.62 -1.11,11.56 -0.75,2.95 -2.14,5.57 -4.14,7.87 -3.58,4.1 -8.33,6.14 -14.25,6.14 -5.91,0 -10.66,-2.04 -14.25,-6.14 -2,-2.3 -3.37,-4.92 -4.12,-7.87 -0.75,-2.94 -1.13,-6.79 -1.13,-11.56 0,-4.77 0.38,-8.62 1.13,-11.56 0.75,-2.95 2.12,-5.57 4.12,-7.87 3.59,-4.1 8.34,-6.15 14.25,-6.15 5.92,0 10.67,2.05 14.25,6.15 2,2.3 3.39,4.92 4.14,7.87zm59.95 -8.59c1.18,-1.54 2.75,-2.83 4.73,-3.87 1.97,-1.04 4.04,-1.56 6.22,-1.56 3.14,0 5.79,0.77 7.94,2.31 1.94,1.41 2.91,3.15 2.91,5.23 0,1.79 -0.57,3.31 -1.72,4.56 -1.06,1.15 -2.34,1.72 -3.84,1.72 -1.06,0 -2.37,-0.43 -3.93,-1.29 -1.53,-0.87 -2.98,-1.3 -4.36,-1.3 -2.09,0 -3.89,0.79 -5.39,2.37 -1.5,1.58 -2.25,3.87 -2.25,6.85l0 21.97c0,2.62 -0.25,4.48 -0.75,5.57 -0.91,1.98 -2.57,2.97 -4.98,2.97 -2.42,0 -4.08,-0.99 -4.99,-2.97 -0.5,-1.09 -0.75,-2.95 -0.75,-5.57l0 -33.73c0,-1.63 0.06,-2.8 0.16,-3.5 0.11,-0.71 0.33,-1.41 0.68,-2.11 0.41,-0.87 1.07,-1.57 1.97,-2.1 0.9,-0.53 1.88,-0.78 2.97,-0.78 1.5,0 2.72,0.48 3.66,1.44 0.91,0.89 1.49,2.16 1.72,3.79zm156.18 45.15c-0.82,0 -1.49,-0.03 -1.99,-0.08 -0.5,-0.05 -1.11,-0.21 -1.86,-0.5 -0.75,-0.28 -1.4,-0.72 -1.93,-1.29 -0.53,-0.58 -0.93,-1.28 -1.19,-2.1 -0.27,-0.81 -0.41,-1.48 -0.46,-2.03 -0.04,-0.54 -0.07,-1.26 -0.07,-2.16l0 -51.53c0,-1.63 0.06,-2.82 0.16,-3.55 0.1,-0.74 0.32,-1.51 0.68,-2.31 0.47,-0.95 1.19,-1.72 2.14,-2.3 0.96,-0.57 2.02,-0.86 3.2,-0.86 1.17,0 2.25,0.29 3.2,0.86 0.96,0.58 1.66,1.35 2.13,2.3 0.36,0.8 0.59,1.57 0.7,2.31 0.1,0.73 0.14,1.92 0.14,3.55l0 47.79 21.4 0c2.3,0 3.9,0.26 4.81,0.77 0.8,0.45 1.43,1.13 1.9,2.06 0.47,0.93 0.71,1.97 0.71,3.12 0,1.15 -0.24,2.19 -0.71,3.12 -0.47,0.93 -1.1,1.61 -1.9,2.06 -0.91,0.51 -2.51,0.77 -4.81,0.77l-26.25 0zm89.15 -32.47c-0.35,1.94 -0.53,4.43 -0.53,7.47 0,3.04 0.18,5.52 0.53,7.45 0.35,1.94 1.07,3.49 2.16,4.64 1.33,1.44 3.11,2.16 5.34,2.16 2.24,0 4.02,-0.72 5.34,-2.16 1.09,-1.15 1.81,-2.7 2.16,-4.64 0.35,-1.93 0.53,-4.41 0.53,-7.45 0,-3.04 -0.18,-5.53 -0.53,-7.47 -0.35,-1.93 -1.07,-3.47 -2.16,-4.62 -1.32,-1.44 -3.1,-2.16 -5.34,-2.16 -2.23,0 -4.01,0.72 -5.34,2.16 -1.09,1.15 -1.81,2.69 -2.16,4.62zm25.89 -4.09c0.75,2.94 1.11,6.79 1.11,11.56 0,4.77 -0.36,8.62 -1.11,11.56 -0.75,2.95 -2.14,5.57 -4.14,7.87 -3.59,4.1 -8.34,6.14 -14.25,6.14 -5.91,0 -10.66,-2.04 -14.25,-6.14 -2,-2.3 -3.37,-4.92 -4.12,-7.87 -0.75,-2.94 -1.13,-6.79 -1.13,-11.56 0,-4.77 0.38,-8.62 1.13,-11.56 0.75,-2.95 2.12,-5.57 4.12,-7.87 3.59,-4.1 8.34,-6.15 14.25,-6.15 5.91,0 10.66,2.05 14.25,6.15 2,2.3 3.39,4.92 4.14,7.87z"/>
    <path class="fil4" d="M6067.21 8825.4c-4.59,0 -8.45,-0.92 -11.56,-2.78 -3.06,-1.85 -4.59,-3.97 -4.59,-6.33 0,-1.51 0.48,-2.77 1.45,-3.79 0.97,-1.03 2.02,-1.54 3.14,-1.54 1.23,0 2.66,0.53 4.28,1.58 2.35,1.54 4.61,2.31 6.79,2.31 2.18,0 3.99,-0.53 5.43,-1.59 1.44,-1.05 2.44,-2.33 2.98,-3.82 0.55,-1.49 0.81,-3.13 0.81,-4.96l0 -5.08c-2.73,3.32 -6.38,4.99 -10.94,4.99 -4.59,0 -8.24,-1.47 -10.94,-4.42 -1.97,-2.14 -3.24,-4.71 -3.81,-7.71 -0.58,-2.99 -0.87,-7.03 -0.87,-12.15 0,-5.12 0.29,-9.17 0.87,-12.13 0.57,-2.95 1.84,-5.5 3.81,-7.64 2.7,-2.94 6.38,-4.42 11.03,-4.42 2.44,0 4.53,0.41 6.26,1.22 1.74,0.82 3.37,2.18 4.9,4.06 0.36,-1.63 0.93,-2.84 1.72,-3.64 0.94,-0.96 2.17,-1.44 3.67,-1.44 1.08,0 2.08,0.25 2.98,0.78 0.9,0.53 1.54,1.23 1.96,2.1 0.35,0.7 0.58,1.4 0.69,2.11 0.1,0.7 0.14,1.87 0.14,3.5l0 40.07c0,6.07 -1.83,11.05 -5.52,14.92 -3.7,3.87 -8.59,5.8 -14.68,5.8zm8.6 -41.39c0.09,-1.1 0.13,-2.4 0.13,-3.9 0,-1.5 -0.04,-2.82 -0.13,-3.92 -0.09,-1.1 -0.28,-2.24 -0.59,-3.42 -0.31,-1.19 -0.73,-2.16 -1.26,-2.91 -0.53,-0.76 -1.27,-1.38 -2.21,-1.88 -0.94,-0.49 -2.07,-0.73 -3.4,-0.73 -1.32,0 -2.45,0.24 -3.39,0.73 -0.94,0.5 -1.67,1.12 -2.18,1.88 -0.51,0.75 -0.93,1.72 -1.22,2.92 -0.29,1.2 -0.49,2.35 -0.57,3.44 -0.09,1.09 -0.14,2.39 -0.14,3.89 0,1.5 0.05,2.8 0.14,3.9 0.08,1.1 0.28,2.27 0.57,3.49 0.29,1.21 0.71,2.19 1.22,2.94 0.51,0.75 1.24,1.38 2.18,1.87 0.94,0.5 2.07,0.75 3.39,0.75 1.33,0 2.46,-0.25 3.4,-0.75 0.94,-0.49 1.68,-1.12 2.21,-1.89 0.53,-0.76 0.95,-1.76 1.26,-2.95 0.31,-1.2 0.5,-2.36 0.59,-3.46zm71.28 -9.98c-0.35,1.94 -0.53,4.43 -0.53,7.47 0,3.04 0.18,5.52 0.53,7.45 0.35,1.94 1.08,3.49 2.16,4.64 1.33,1.44 3.11,2.16 5.34,2.16 2.24,0 4.02,-0.72 5.34,-2.16 1.09,-1.15 1.81,-2.7 2.16,-4.64 0.36,-1.93 0.53,-4.41 0.53,-7.45 0,-3.04 -0.17,-5.53 -0.53,-7.47 -0.35,-1.93 -1.07,-3.47 -2.16,-4.62 -1.32,-1.44 -3.1,-2.16 -5.34,-2.16 -2.23,0 -4.01,0.72 -5.34,2.16 -1.08,1.15 -1.81,2.69 -2.16,4.62zm25.89 -4.09c0.75,2.94 1.11,6.79 1.11,11.56 0,4.77 -0.36,8.62 -1.11,11.56 -0.75,2.95 -2.14,5.57 -4.14,7.87 -3.58,4.1 -8.33,6.14 -14.25,6.14 -5.91,0 -10.66,-2.04 -14.25,-6.14 -2,-2.3 -3.37,-4.92 -4.12,-7.87 -0.75,-2.94 -1.13,-6.79 -1.13,-11.56 0,-4.77 0.38,-8.62 1.13,-11.56 0.75,-2.95 2.12,-5.57 4.12,-7.87 3.59,-4.1 8.34,-6.15 14.25,-6.15 5.92,0 10.67,2.05 14.25,6.15 2,2.3 3.39,4.92 4.14,7.87z"/>
   </g>
   <path class="fil5" d="M3340.52 8202.8l257.66 0c10.3,0 20.38,1.93 29.74,6.32 8.67,4.07 16.29,9.79 22.35,17.23 6.04,7.42 10.17,15.97 12.66,25.18 2.74,10.18 2.82,20.69 0.88,30.75l-14.28 84.46c-2.52,14.88 -8.91,28.24 -18.41,39.94 -5.31,6.55 -11.28,12.33 -17.89,17.29 6.39,5.97 11.63,13.08 15.7,21.24 7.6,15.19 9.17,31.62 6.27,48.27l-19.47 111.74c-2.07,11.85 -6.1,23.09 -12.16,33.5 -6.09,10.47 -13.82,19.67 -23.08,27.47 -9.15,7.72 -19.33,13.9 -30.4,18.47 -11.2,4.63 -22.96,7.06 -35.08,7.06l-204.39 0 71.37 -422.35 103.94 0 -22.44 132.22 56.73 0c7.66,0 14.13,-2.98 19.94,-7.9 5.88,-4.98 9.9,-10.96 11.21,-18.61l16.91 -98.74c1.07,-6.23 0.07,-11.52 -3.97,-16.44 -3.94,-4.79 -8.7,-6.7 -14.86,-6.7l-321.33 0 10.85 -18.01c74.47,-123.59 207.7,-199.27 352.41,-199.27 227.07,0 411.15,184.09 411.15,411.15 0,60.07 -12.96,119.14 -38.35,173.58l-3.2 6.87 -68.82 0 9.19 -17.43c26.56,-50.37 40.2,-106.09 40.2,-163.02 0,-193.39 -156.77,-350.17 -350.17,-350.17 -95.18,0 -185.11,38.33 -250.86,105.9zm114.36 249.2l-32.31 189.33 57.36 0c7.67,0 14.08,-3.16 19.81,-8.14 5.87,-5.12 10.05,-11.23 11.35,-18.98l23.45 -139.95 0.06 -0.28c1.25,-5.82 0.6,-10.85 -3.3,-15.45 -4,-4.71 -8.85,-6.53 -14.99,-6.53l-61.43 0z"/>
   <path class="fil6" d="M3849.48 8642l104.61 0 -10.94 18.05c-74.63,122.99 -207.5,198.17 -351.77,198.17 -227.07,0 -411.15,-184.08 -411.15,-411.15 0,-59.66 12.79,-118.34 37.87,-172.49l3.19 -6.88 68.69 0 -9.11 17.39c-26.21,50.09 -39.66,105.46 -39.66,161.98 0,193.4 156.78,350.18 350.17,350.18 94.67,0 184.19,-37.93 249.87,-104.89l-120.93 0c-12.36,0 -24.44,-2.31 -35.64,-7.64 -10.25,-4.88 -19.33,-11.58 -26.69,-20.26 -7.42,-8.74 -12.47,-18.89 -15.42,-29.95 -3.22,-12.06 -3.18,-24.59 -0.89,-36.55l51.32 -305.22c1.97,-12.51 6.39,-24.27 12.91,-35.13 6.42,-10.72 14.38,-20.3 23.8,-28.51 9.42,-8.21 19.98,-14.74 31.51,-19.54 11.83,-4.93 24.25,-7.42 37.07,-7.42l14.06 0 -70.61 417.57 -0.06 0.27c-1.22,5.65 -0.81,10.67 2.99,15.17 3.86,4.59 8.6,6.82 14.64,6.82l90.17 0 0 0.03z"/>
  </g>
  <g id="_2079861519600">
   <path class="fil7" d="M1775.11 1791.24l6449.76 0c78.25,0 142.26,64.02 142.26,142.25l0 4227.46c0,78.24 -64.02,142.26 -142.26,142.26l-6449.76 0c-78.24,0 -142.25,-64.01 -142.25,-142.26l0 -4227.46c0,-78.24 64,-142.25 142.25,-142.25z"/>
   <path class="fil8" d="M5150.56 5001.02c-1200.82,67.56 -3320.39,-124.39 -3308.27,-1052.64 12.69,-971.95 2086.8,-1322.63 3024.1,-1301.25l-0.02 -147.11 269.63 139 269.56 139 -269.61 139.06 -269.56 138.98 0.03 -147.19c-897.32,2.02 -2774.48,288.82 -2782.22,1104.89 -6.42,676.56 1839.87,873.88 3066.36,987.26z"/>
   <path class="fil9" d="M5112.29 5020.8c-165.06,8.36 -346.5,11.9 -536.8,9.43 -590.51,-7.69 -1264.76,-73.52 -1796.86,-232.75 -537.46,-160.84 -931.25,-417.57 -953.16,-806.97 -0.77,-13.69 -1.06,-27.85 -0.88,-42.35l0.11 -6.72c11.12,-487.24 526.62,-819.07 1159.33,-1027.15 627.91,-206.49 1372.43,-291.68 1849.01,-285.45l15.65 0.24 -0.03 -158.12 595.57 307.06 -506.93 261.44c165.06,-8.36 346.56,-11.92 536.89,-9.43 590.5,7.71 1264.7,73.55 1796.8,232.76 537.43,160.85 931.2,417.56 953.09,806.91 0.77,13.71 1.07,27.87 0.88,42.37l-0.11 6.72c-11.12,487.25 -526.62,819.09 -1159.32,1027.18 -627.93,206.49 -1372.45,291.68 -1849.03,285.45l-15.65 -0.24 0.03 158.13 -595.55 -307.08 506.96 -261.43zm-242.59 -1946.49l-21.01 -1.93 0.02 -28.06 0.01 -117.66c-528.39,3.34 -1381.67,103.44 -1998.63,348.46 -430.66,171.02 -745.09,412.11 -748.19,738.78 -3.1,327.58 451.05,541.28 1057.3,687.46 612.97,147.81 1380.35,225.41 1992.95,282.03l27.73 2.56 20.98 1.94 -0.01 28.05 -0.03 117.66c528.39,-3.34 1381.67,-103.44 1998.64,-348.47 430.65,-171.03 745.09,-412.12 748.19,-738.8 3.09,-327.57 -451.05,-541.27 -1057.31,-687.44 -612.99,-147.8 -1380.35,-225.41 -1992.95,-282.02l-27.69 -2.56zm604.06 -8.88c-105.8,-1.38 -208.97,-0.88 -308.21,1.28 560.36,54.7 1203.72,130.11 1733.12,257.75 621.87,149.94 1087.68,373.23 1084.38,722.16 -3.26,344.23 -327.08,595.29 -770.54,771.4 -628.37,249.55 -1499.39,349.87 -2029.39,351.06l-17.7 0.04 0.03 -135.87 -482.82 248.97 482.84 248.96 -0.02 -136.16 51.47 1.01c473.48,6.18 1213.34,-78.51 1837.63,-283.81 619.52,-203.75 1124.23,-525.75 1134.9,-994.06l0.12 -6.59c0.17,-13.21 -0.13,-26.57 -0.88,-39.93 -20.86,-371.08 -404.3,-618.17 -927.82,-774.85 -528.87,-158.24 -1199.53,-223.7 -1787.11,-231.36zm-897.84 1929.4c105.76,1.38 208.89,0.88 308.07,-1.28 -560.35,-54.71 -1203.72,-130.11 -1733.12,-257.76 -621.87,-149.95 -1087.68,-373.25 -1084.36,-722.18 3.25,-344.22 327.06,-595.28 770.53,-771.39 628.36,-249.53 1499.38,-349.85 2029.38,-351.04l17.71 -0.03 -0.04 135.85 482.82 -248.98 -482.85 -248.95 0.04 136.19 -51.48 -1.03c-473.48,-6.18 -1213.34,78.51 -1837.62,283.81 -619.51,203.75 -1124.22,525.73 -1134.9,994.03l-0.11 6.59c-0.17,13.19 0.12,26.56 0.88,39.92 20.87,371.1 404.32,618.22 927.88,774.9 528.89,158.27 1199.58,223.7 1787.17,231.35z"/>
   <path class="fil8" d="M4899 3059.24c1200.8,-67.57 3320.39,124.39 3308.26,1052.62 -12.69,971.97 -2086.79,1322.65 -3024.11,1301.27l0.02 147.11 -269.62 -139 -269.56 -139.01 269.61 -139.06 269.55 -138.98 -0.02 147.19c897.32,-2.01 2774.48,-288.82 2782.23,-1104.9 6.41,-676.54 -1839.87,-873.87 -3066.36,-987.24z"/>
   <path class="fil10" d="M2726 3578.23l415.12 0c78.08,0 137.41,8.93 177.93,26.34 40.32,17.63 71.65,43.78 93.97,78.42 22.32,34.66 34.56,77.2 36.69,127.44 2.77,65.25 -13.49,123.21 -48.56,174.06 -34.87,50.85 -80.12,87.53 -135.57,109.62 -55.25,22.1 -132.84,33.24 -232.63,33.24l-125.32 0 -57.43 321.16 -284.91 0 110.93 -600.08 -65.66 0.32 115.44 -270.52zm214.31 376.88l0 0 95.32 0c44.47,0 80.33,-12.36 107.78,-37.28 27.45,-24.93 40.45,-54.71 38.99,-89.16 -2.22,-52.06 -33.11,-78.21 -92.47,-78.21l-111.07 0 -38.55 204.65z"/>
   <path class="fil10" d="M4375.86 4448.51l-312.54 0 -196.48 -332.74 -64.27 332.74 -249.14 0 115.92 -600.23 -74.85 -0.15 127.01 -269.9 424.16 0c93.43,0 161.59,23.51 204.28,70.52 42.7,47 56.74,108.81 41.88,185.83 -9.67,50.06 -27.76,94.49 -54.32,132.98 -26.43,38.31 -126.27,116.83 -196.36,123.4l234.71 357.55zm-473.05 -519.04l0 0 106.61 0c31.27,0 57.8,-6.96 79.57,-20.89 21.62,-14.14 35.15,-34.82 40.4,-62.02 10.73,-55.49 -15.77,-83.34 -79.53,-83.34l-114.93 0 -32.12 166.25z"/>
   <polygon class="fil10" points="4973.75,3578.23 4818.74,4448.51 4553.94,4448.51 4661.42,3845.2 4595.81,3845.2 4708.95,3578.23 "/>
   <polygon class="fil10" points="5018.45,4448.51 5283.48,3784.6 5206.49,3784.59 5365.88,3578.22 5655.22,3578.23 5756.08,4029.69 6066.38,3578.23 6345.02,3578.23 6344.87,4448.51 6076.83,4448.51 6075.52,3943.57 5732.25,4454.45 5617.26,4448.51 5478.07,3943.57 5287.18,4448.51 "/>
   <path class="fil10" d="M7484.61 4448.51l-300.15 0 -13.62 -142.44 -322.98 0 -77.06 142.44 -329.92 0 426.97 -663.91 -84.11 0 216.84 -206.36 326.46 0 157.57 870.27zm-333.37 -327.03l0 0 -30.23 -317.12 -2.76 0 -170.26 317.12 203.25 0z"/>
  </g>
 </g>
</svg>
